<svg id="Capa_1" data-name="Capa 1" xmlns="http://www.w3.org/2000/svg" viewBox="0 0 324.75 111.47"><defs><style>.cls-1{fill:#8a8c8e;}.cls-2{fill:#8ec044;}.cls-3{fill:#0ea7d8;}.cls-4{fill:#eb5d28;}</style></defs><title>unholster-logo</title><path class="cls-1" d="M104.37,104.05c0-5.42-3.17-7.08-8.34-7.08-5.42,0-8.17.91-11.26,2.66v34.7H78.93V92.63h3.26l1.25,3.5A20.75,20.75,0,0,1,96,91.79c9.92,0,14.18,4.51,14.18,12.52v30h-5.84Z" transform="translate(-25.23 -23.69)"/><path class="cls-1" d="M136.06,97c-5.42,0-8.34.91-11.43,2.66v34.7H119V71.78h5.67V95.21a21,21,0,0,1,11.43-3.42c9.93,0,14.18,4.51,14.18,12.52v30H144.4V104.05C144.4,98.63,141.23,97,136.06,97Z" transform="translate(-25.23 -23.69)"/><path class="cls-1" d="M175.68,135.16c-14.27,0-17.52-8.92-17.52-21.68s3.25-21.69,17.52-21.69,17.51,8.93,17.51,21.69S190,135.16,175.68,135.16Zm0-38.19c-11,0-11.68,7.08-11.68,16.51S164.67,130,175.68,130c10.84,0,11.67-7.09,11.67-16.51S186.52,97,175.68,97Z" transform="translate(-25.23 -23.69)"/><path class="cls-1" d="M202.86,126V71.78h5.67v54.88c0,2.92.92,3.75,3.51,3.75v4.75C206,135.16,202.86,132.66,202.86,126Z" transform="translate(-25.23 -23.69)"/><path class="cls-1" d="M233.8,110.39c11.85,1.09,14.68,5.09,14.68,11.93,0,6.42-4.09,12.84-16.76,12.84a41.21,41.21,0,0,1-12.43-2.08v-5A36.72,36.72,0,0,0,231.8,130c8.67,0,11-3.67,11-7.59s-1.17-6.5-9.43-7.17c-12.09-1.08-14.59-5.34-14.59-11.09,0-5.92,3.84-12.35,15.6-12.35a31.08,31.08,0,0,1,12,2.09v5A34.66,34.66,0,0,0,234.3,97c-8.25,0-10,3.08-10,7.17C224.29,107.81,225.8,109.73,233.8,110.39Z" transform="translate(-25.23 -23.69)"/><path class="cls-1" d="M278.25,134.83a18.49,18.49,0,0,1-3.75.33c-6.92,0-13.34-3.17-13.34-11.34V97.22h-8.35V94.63l8.35-2.42V81L267,79.28V92.63h12.93v4.59H267v25.94c0,5.08,2.75,7.17,8,7.17,1.08,0,2.17-.09,3.25-.17Z" transform="translate(-25.23 -23.69)"/><path class="cls-1" d="M302.85,91.79c14.18,0,15.85,9.68,15.85,21.69v2.67H291.18c.33,7.25,2.25,13.84,11.67,13.84,6,0,9.68-.58,13.77-2.33v5a33.72,33.72,0,0,1-13.77,2.5c-14.09,0-17.51-9.67-17.51-21.68S288.76,91.79,302.85,91.79Zm-11.67,19.6h21.68c0-7.42-.41-14.42-10-14.42S291.43,103.89,291.18,111.39Z" transform="translate(-25.23 -23.69)"/><path class="cls-1" d="M350,97.63a16.3,16.3,0,0,0-5-.66c-5.67,0-9,.91-12.09,2.66v34.7H327V92.63h3.25l1.25,3.5A22.63,22.63,0,0,1,345,91.79a30.22,30.22,0,0,1,5,.42Z" transform="translate(-25.23 -23.69)"/><path class="cls-1" d="M63.74,113.83V78.46l5.66-6.63v42.91c0,17.75-14.58,20.42-22.08,20.42s-22.09-2.67-22.09-20.42V77.31l5.67-5.48v42c0,15,10.83,16.08,16.42,16.08S63.74,128.83,63.74,113.83Z" transform="translate(-25.23 -23.69)"/><path class="cls-2" d="M56.54,29.51l-2.74,4.2v91.13a8.51,8.51,0,0,0,5.39-6.27V25.44Z" transform="translate(-25.23 -23.69)"/><path class="cls-3" d="M46.07,29.51l-1.44,2.13V125.7a25.91,25.91,0,0,0,5.38,0v-102Z" transform="translate(-25.23 -23.69)"/><path class="cls-4" d="M35.45,118.57a8.52,8.52,0,0,0,5.38,6.27V47.38L38.09,50l-2.64,2.47Z" transform="translate(-25.23 -23.69)"/></svg>