<svg id="Capa_1" data-name="Capa 1" xmlns="http://www.w3.org/2000/svg" viewBox="0 0 72.64 183.31"><defs><style>.cls-1{fill:#8a8c8e;}.cls-2{fill:#8ec044;}.cls-3{fill:#0ea7d8;}.cls-4{fill:#eb5d28;}</style></defs><title>unholster-isotipo</title><path class="cls-1" d="M88.55,171.92V113.76l9.32-10.92v70.58c0,29.19-24,33.58-36.32,33.58s-36.32-4.39-36.32-33.58V111.86l9.33-9v69.08c0,24.66,17.81,26.44,27,26.44S88.55,196.58,88.55,171.92Z" transform="translate(-25.23 -23.69)"/><path class="cls-2" d="M76.72,33.25l-4.5,6.92V190c4.66-1.81,7.53-5.18,8.86-10.31V26.56Z" transform="translate(-25.23 -23.69)"/><path class="cls-3" d="M59.5,33.25l-2.37,3.5V191.44a42.59,42.59,0,0,0,8.84,0V23.69Z" transform="translate(-25.23 -23.69)"/><path class="cls-4" d="M42,179.72c1.32,5.13,4.19,8.49,8.85,10.3V62.65l-4.52,4.22L42,70.93Z" transform="translate(-25.23 -23.69)"/></svg>